# xmcd
#
# Track frame offsets:
#	150
#	17151
#	36934
#	53674
#	68809
#	86944
#	105166
#	124222
#	140748
#	160677
#	173292
#	187843
#	203461
#
# Disc length: 2902 seconds
#
# Revision: 0
# Processed by: cddbd v1.5.2PL0 Copyright (c) Steve Scherf et al.
# Submitted via: dBpowerAMP V4.0
#
DISCID=a00b540d
DTITLE=Various Artist - Country
DYEAR=1900
DGENRE=
TTITLE0=song
TTITLE1=Song
TTITLE2=Song
TTITLE3=Song
TTITLE4=why
TTITLE5=hgdhg
TTITLE6=gh
TTITLE7=fgn
TTITLE8=fgfg
TTITLE9=ghjnfn
TTITLE10=bm,
TTITLE11=vbn
TTITLE12=vbnv
EXTD=Various country
EXTT0=
EXTT1=
EXTT2=
EXTT3=
EXTT4=
EXTT5=
EXTT6=
EXTT7=
EXTT8=
EXTT9=
EXTT10=
EXTT11=
EXTT12=
PLAYORDER=
